<svg xmlns="http://www.w3.org/2000/svg" width="760" height="260" viewBox="0 0 760 260">
<rect width="100%" height="100%" fill="white"/>
<text x="380.0" y="26.0" font-family="sans-serif" font-size="15" text-anchor="middle">Comparison-tier counts in the current data layer</text>
<text x="238.0" y="48.0" font-family="sans-serif" font-size="11" text-anchor="start">low</text>
<text x="314.0" y="48.0" font-family="sans-serif" font-size="11" text-anchor="start">moderate</text>
<text x="417.0" y="48.0" font-family="sans-serif" font-size="11" text-anchor="start">high</text>
<rect x="220" y="39" width="12" height="12" fill="#d9d9d9" stroke="#333"/>
<rect x="296" y="39" width="12" height="12" fill="#a6a6a6" stroke="#333"/>
<rect x="399" y="39" width="12" height="12" fill="#595959" stroke="#333"/>
<text x="210.0" y="78.0" font-family="sans-serif" font-size="12" text-anchor="end">x2c-QZVPall → dyall-v4z</text>
<rect x="220.0" y="58.0" width="437.4" height="26" fill="#d9d9d9" stroke="#333"/>
<text x="438.7" y="76.0" font-family="sans-serif" font-size="11" text-anchor="middle">418</text>
<rect x="657.4" y="58.0" width="11.5" height="26" fill="#a6a6a6" stroke="#333"/>
<rect x="669.0" y="58.0" width="1.0" height="26" fill="#595959" stroke="#333"/>
<text x="682.0" y="76.0" font-family="sans-serif" font-size="11" text-anchor="start">n=430</text>
<text x="210.0" y="132.0" font-family="sans-serif" font-size="12" text-anchor="end">dyall-v4z → dyall-av4z</text>
<rect x="220.0" y="112.0" width="138.1" height="26" fill="#d9d9d9" stroke="#333"/>
<text x="289.1" y="130.0" font-family="sans-serif" font-size="11" text-anchor="middle">132</text>
<rect x="358.1" y="112.0" width="20.9" height="26" fill="#a6a6a6" stroke="#333"/>
<rect x="379.1" y="112.0" width="14.7" height="26" fill="#595959" stroke="#333"/>
<text x="682.0" y="130.0" font-family="sans-serif" font-size="11" text-anchor="start">n=166</text>
<text x="210.0" y="186.0" font-family="sans-serif" font-size="12" text-anchor="end">x2c-QZVPall → x2c-QZVPall-s</text>
<rect x="220.0" y="166.0" width="200.9" height="26" fill="#d9d9d9" stroke="#333"/>
<text x="320.5" y="184.0" font-family="sans-serif" font-size="11" text-anchor="middle">192</text>
<text x="682.0" y="184.0" font-family="sans-serif" font-size="11" text-anchor="start">n=192</text>
<line x1="220" y1="222" x2="670" y2="222" stroke="#333"/>
<text x="220.0" y="242.0" font-family="sans-serif" font-size="10" text-anchor="middle">0</text>
<text x="670.0" y="242.0" font-family="sans-serif" font-size="10" text-anchor="middle">430</text>
</svg>
