<svg xmlns="http://www.w3.org/2000/svg" width="820" height="360" viewBox="0 0 820 360">
<rect width="100%" height="100%" fill="white"/>
<text x="410.0" y="26.0" font-family="sans-serif" font-size="15" text-anchor="middle">p95 relative radial-distribution L1 difference by charge</text>
<line x1="72" y1="304" x2="762" y2="304" stroke="#333"/>
<line x1="72" y1="74" x2="72" y2="304" stroke="#333"/>
<line x1="68" y1="304.0" x2="72" y2="304.0" stroke="#333"/>
<text x="64.0" y="308.0" font-family="sans-serif" font-size="10" text-anchor="end">0</text>
<line x1="68" y1="189.0" x2="72" y2="189.0" stroke="#333"/>
<text x="64.0" y="193.0" font-family="sans-serif" font-size="10" text-anchor="end">0.202</text>
<line x1="68" y1="74.0" x2="72" y2="74.0" stroke="#333"/>
<text x="64.0" y="78.0" font-family="sans-serif" font-size="10" text-anchor="end">0.405</text>
<text x="121.3" y="324.0" font-family="sans-serif" font-size="11" text-anchor="middle">-3</text>
<rect x="86.1" y="215.3" width="19.2" height="88.7" fill="#d9d9d9" stroke="#333"/>
<rect x="109.6" y="98.6" width="19.2" height="205.4" fill="#8c8c8c" stroke="#333"/>
<rect x="133.0" y="296.4" width="19.2" height="7.6" fill="#f2f2f2" stroke="#333"/>
<text x="219.9" y="324.0" font-family="sans-serif" font-size="11" text-anchor="middle">-2</text>
<rect x="184.7" y="250.7" width="19.2" height="53.3" fill="#d9d9d9" stroke="#333"/>
<rect x="208.1" y="154.6" width="19.2" height="149.4" fill="#8c8c8c" stroke="#333"/>
<rect x="231.6" y="299.0" width="19.2" height="5.0" fill="#f2f2f2" stroke="#333"/>
<text x="318.4" y="324.0" font-family="sans-serif" font-size="11" text-anchor="middle">-1</text>
<rect x="283.2" y="289.3" width="19.2" height="14.7" fill="#d9d9d9" stroke="#333"/>
<rect x="306.7" y="258.2" width="19.2" height="45.8" fill="#8c8c8c" stroke="#333"/>
<rect x="330.2" y="302.5" width="19.2" height="1.5" fill="#f2f2f2" stroke="#333"/>
<text x="417.0" y="324.0" font-family="sans-serif" font-size="11" text-anchor="middle">0</text>
<rect x="381.8" y="302.8" width="19.2" height="1.2" fill="#d9d9d9" stroke="#333"/>
<rect x="405.3" y="303.9" width="19.2" height="0.1" fill="#8c8c8c" stroke="#333"/>
<rect x="428.7" y="303.2" width="19.2" height="0.8" fill="#f2f2f2" stroke="#333"/>
<text x="515.6" y="324.0" font-family="sans-serif" font-size="11" text-anchor="middle">1</text>
<rect x="480.4" y="302.7" width="19.2" height="1.3" fill="#d9d9d9" stroke="#333"/>
<rect x="503.8" y="304.0" width="19.2" height="0.0" fill="#8c8c8c" stroke="#333"/>
<rect x="527.3" y="304.0" width="19.2" height="0.0" fill="#f2f2f2" stroke="#333"/>
<text x="614.1" y="324.0" font-family="sans-serif" font-size="11" text-anchor="middle">2</text>
<rect x="578.9" y="303.0" width="19.2" height="1.0" fill="#d9d9d9" stroke="#333"/>
<rect x="602.4" y="304.0" width="19.2" height="0.0" fill="#8c8c8c" stroke="#333"/>
<rect x="625.9" y="304.0" width="19.2" height="0.0" fill="#f2f2f2" stroke="#333"/>
<text x="712.7" y="324.0" font-family="sans-serif" font-size="11" text-anchor="middle">3</text>
<rect x="677.5" y="302.6" width="19.2" height="1.4" fill="#d9d9d9" stroke="#333"/>
<rect x="701.0" y="304.0" width="19.2" height="0.0" fill="#8c8c8c" stroke="#333"/>
<rect x="724.4" y="304.0" width="19.2" height="0.0" fill="#f2f2f2" stroke="#333"/>
<text x="417.0" y="346.0" font-family="sans-serif" font-size="12" text-anchor="middle">charge</text>
<text x="22.0" y="189.0" font-family="sans-serif" font-size="12" text-anchor="middle" transform="rotate(-90 22.0 189.0)">p95 rel. L1</text>
<rect x="116" y="38" width="12" height="12" fill="#d9d9d9" stroke="#333"/>
<text x="134.0" y="48.0" font-family="sans-serif" font-size="10" text-anchor="start">x2c-QZVPall → dyall-v4z</text>
<rect x="116" y="56" width="12" height="12" fill="#8c8c8c" stroke="#333"/>
<text x="134.0" y="66.0" font-family="sans-serif" font-size="10" text-anchor="start">dyall-v4z → dyall-av4z</text>
<rect x="116" y="74" width="12" height="12" fill="#f2f2f2" stroke="#333"/>
<text x="134.0" y="84.0" font-family="sans-serif" font-size="10" text-anchor="start">x2c-QZVPall → x2c-QZVPall-s</text>
</svg>
